<?xml version="1.0" encoding="UTF-8"?><svg xmlns="http://www.w3.org/2000/svg" xmlns:xlink="http://www.w3.org/1999/xlink" width="375" zoomAndPan="magnify" viewBox="0 0 375 374.999991" height="374.999991" preserveAspectRatio="xMidYMid meet" version="1.0"><defs><clipPath id="clip-0"><path d="M 6.210938 24.339844 L 368.460938 24.339844 L 368.460938 350.589844 L 6.210938 350.589844 Z M 6.210938 24.339844 " clip-rule="nonzero"/></clipPath></defs><g clip-path="url(#clip-0)"><path fill="rgb(100%, 100%, 100%)" d="M 187.335938 350.480469 L 185.386719 349.355469 C 184.980469 349.125 144.511719 325.636719 102.679688 287.433594 C 63.875 251.992188 15.871094 196.230469 7.542969 131.847656 C 6.730469 126.933594 6.304688 121.828125 6.304688 116.804688 C 6.304688 65.78125 47.785156 24.273438 98.773438 24.273438 C 140.507812 24.273438 175.875 52.085938 187.332031 90.164062 C 198.792969 52.089844 234.164062 24.273438 275.898438 24.273438 C 326.886719 24.273438 368.367188 65.78125 368.367188 116.804688 C 368.367188 121.804688 367.945312 126.910156 367.105469 131.980469 C 358.796875 196.230469 310.792969 251.992188 271.988281 287.429688 C 230.15625 325.636719 189.683594 349.121094 189.28125 349.355469 Z M 98.773438 32.089844 C 52.09375 32.089844 14.117188 70.09375 14.117188 116.804688 C 14.117188 121.398438 14.503906 126.074219 15.273438 130.707031 C 29.753906 242.664062 169.132812 330.414062 187.339844 341.421875 C 195.84375 336.292969 230.824219 314.472656 266.84375 281.550781 C 304.632812 247.011719 351.363281 192.832031 359.382812 130.839844 C 360.171875 126.054688 360.558594 121.378906 360.558594 116.800781 C 360.558594 70.089844 322.582031 32.085938 275.902344 32.085938 C 229.21875 32.085938 191.242188 70.089844 191.242188 116.800781 L 183.429688 116.800781 C 183.429688 70.09375 145.453125 32.089844 98.773438 32.089844 Z M 98.773438 32.089844 " fill-opacity="1" fill-rule="nonzero"/></g><path fill="rgb(100%, 100%, 100%)" d="M 187.019531 238.371094 C 185.660156 238.371094 184.382812 237.664062 183.671875 236.480469 L 156.082031 190.578125 L 143.609375 213.738281 C 142.929688 215.003906 141.609375 215.792969 140.171875 215.792969 L 76.238281 215.792969 C 74.082031 215.792969 72.332031 214.042969 72.332031 211.886719 C 72.332031 209.726562 74.082031 207.976562 76.238281 207.976562 L 137.839844 207.976562 L 152.457031 180.832031 C 153.121094 179.597656 154.398438 178.8125 155.800781 178.78125 C 157.207031 178.746094 158.515625 179.46875 159.238281 180.671875 L 185.886719 225.003906 L 212.957031 138.515625 C 213.4375 136.976562 214.816406 135.890625 216.425781 135.785156 C 218.019531 135.679688 219.542969 136.574219 220.226562 138.039062 L 252.710938 207.976562 L 298.433594 207.976562 C 300.59375 207.976562 302.339844 209.726562 302.339844 211.882812 C 302.339844 214.042969 300.59375 215.792969 298.433594 215.792969 L 250.222656 215.792969 C 248.703125 215.792969 247.320312 214.910156 246.679688 213.53125 L 217.394531 150.488281 L 190.746094 235.632812 C 190.285156 237.097656 189.007812 238.160156 187.480469 238.34375 C 187.324219 238.363281 187.171875 238.371094 187.019531 238.371094 Z M 187.019531 238.371094 " fill-opacity="1" fill-rule="nonzero"/></svg>